<?xml version="1.0" encoding="iso-8859-1"?>
<!-- Generator: Adobe Illustrator 19.0.0, SVG Export Plug-In . SVG Version: 6.00 Build 0)  -->
<svg version="1.1" id="Layer_1" xmlns="http://www.w3.org/2000/svg" xmlns:xlink="http://www.w3.org/1999/xlink" x="0px" y="0px"
	 viewBox="0 0 512 512" style="enable-background:new 0 0 512 512;" xml:space="preserve">
<polygon style="fill:#EAAA28;" points="317.026,54.558 317.026,457.442 413.38,512 413.38,0 "/>
<polygon style="fill:#CF8720;" points="337.924,75.456 413.38,0 256,0 235.102,96.354 "/>
<polygon style="fill:#EAAA28;" points="256,0 98.62,0 174.076,96.354 256,96.354 "/>
<polygon style="fill:#CF8720;" points="337.924,436.544 235.102,415.646 256,512 413.38,512 "/>
<polygon style="fill:#EAAA28;" points="174.076,415.646 98.62,512 256,512 256,415.646 "/>
<polygon style="fill:#F1CC40;" points="256,436.544 337.924,436.544 337.924,75.456 256,75.456 235.102,256 "/>
<polygon style="fill:#F7E997;" points="256,75.456 174.076,75.456 153.178,256 174.076,436.544 256,436.544 "/>
<polygon style="fill:#F1CC40;" points="174.076,75.456 98.62,0 98.62,512 174.076,436.544 "/>
<g>
	<polygon style="fill:#EAAA28;" points="292.29,113.68 256,113.68 235.102,129.353 256,145.027 292.29,145.027 	"/>
	<polygon style="fill:#EAAA28;" points="292.29,167.577 256,167.577 235.102,183.25 256,198.923 292.29,198.923 	"/>
	<polygon style="fill:#EAAA28;" points="292.29,366.973 256,366.973 235.102,382.647 256,398.32 292.29,398.32 	"/>
</g>
<g>
	<rect x="219.711" y="113.685" style="fill:#F1CC40;" width="36.29" height="31.347"/>
	<rect x="219.711" y="366.968" style="fill:#F1CC40;" width="36.29" height="31.347"/>
	<rect x="219.711" y="167.581" style="fill:#F1CC40;" width="36.29" height="31.347"/>
</g>
<g>
</g>
<g>
</g>
<g>
</g>
<g>
</g>
<g>
</g>
<g>
</g>
<g>
</g>
<g>
</g>
<g>
</g>
<g>
</g>
<g>
</g>
<g>
</g>
<g>
</g>
<g>
</g>
<g>
</g>
</svg>
