<?xml version="1.0" encoding="iso-8859-1"?>
<!-- Generator: Adobe Illustrator 19.0.0, SVG Export Plug-In . SVG Version: 6.00 Build 0)  -->
<svg version="1.1" id="Layer_1" xmlns="http://www.w3.org/2000/svg" xmlns:xlink="http://www.w3.org/1999/xlink" x="0px" y="0px"
	 viewBox="0 0 512 512" style="enable-background:new 0 0 512 512;" xml:space="preserve">
<path style="fill:#EDF0F2;" d="M256,512C114.843,512,0,397.157,0,256S114.843,0,256,0s256,114.843,256,256S397.157,512,256,512z"/>
<path style="fill:#DAE1E6;" d="M512,256c0,141.157-114.843,256-256,256V0C397.157,0,512,114.843,512,256z"/>
<path style="fill:#736056;" d="M256,272.696c-75.185,0-136.348-61.163-136.348-136.348c0-25.278,7.038-48.888,19.074-69.206
	C75.616,106.479,33.391,176.316,33.391,256c0,122.744,99.864,222.609,222.609,222.609c56.772,0,102.957-46.185,102.957-102.957
	S312.772,272.696,256,272.696z"/>
<path style="fill:#665247;" d="M358.957,375.652c0,56.772-46.185,102.957-102.957,102.957V272.696
	C312.772,272.696,358.957,318.88,358.957,375.652z"/>
<path style="fill:#736056;" d="M311.652,133.565c0,30.684-24.968,55.652-55.652,55.652s-55.652-24.968-55.652-55.652
	S225.316,77.913,256,77.913S311.652,102.881,311.652,133.565z"/>
<path style="fill:#665247;" d="M311.652,133.565c0,30.684-24.968,55.652-55.652,55.652V77.913
	C286.684,77.913,311.652,102.881,311.652,133.565z"/>
<path style="fill:#EDF0F2;" d="M311.652,378.435c0,30.684-24.968,55.652-55.652,55.652s-55.652-24.968-55.652-55.652
	s24.968-55.652,55.652-55.652S311.652,347.75,311.652,378.435z"/>
<path style="fill:#DAE1E6;" d="M311.652,378.435c0,30.684-24.968,55.652-55.652,55.652V322.783
	C286.684,322.783,311.652,347.75,311.652,378.435z"/>
<g>
</g>
<g>
</g>
<g>
</g>
<g>
</g>
<g>
</g>
<g>
</g>
<g>
</g>
<g>
</g>
<g>
</g>
<g>
</g>
<g>
</g>
<g>
</g>
<g>
</g>
<g>
</g>
<g>
</g>
</svg>
