<?xml version="1.0" encoding="iso-8859-1"?>
<!-- Generator: Adobe Illustrator 19.0.0, SVG Export Plug-In . SVG Version: 6.00 Build 0)  -->
<svg version="1.1" id="Layer_1" xmlns="http://www.w3.org/2000/svg" xmlns:xlink="http://www.w3.org/1999/xlink" x="0px" y="0px"
	 viewBox="0 0 512 512" style="enable-background:new 0 0 512 512;" xml:space="preserve">
<path style="fill:#E0E0E2;" d="M442.947,294.957c-10.17-68.812-56.721-125.591-120.164-149.374V33.391h16.327
	c9.22,0,16.696-7.475,16.696-16.696S348.33,0,339.11,0H172.153c-9.22,0-16.696,7.475-16.696,16.696s7.475,16.696,16.696,16.696
	h17.064v112.464C125.774,169.8,79.184,226.412,69.053,294.957c-1.346,9.106-2.271,18.346-2.271,27.826
	C66.783,427.284,151.497,512,256,512s189.217-84.716,189.217-189.217C445.217,313.303,444.292,304.062,442.947,294.957z"/>
<path style="fill:#C6C5CA;" d="M442.947,294.957c-10.17-68.812-56.721-125.591-120.164-149.374V33.391h16.327
	c9.22,0,16.696-7.475,16.696-16.696S348.33,0,339.11,0H256v294.957V512c104.501,0,189.217-84.716,189.217-189.217
	C445.217,313.303,444.292,304.062,442.947,294.957z"/>
<path style="fill:#933EC5;" d="M69.053,294.957c-1.346,9.106-2.271,18.346-2.271,27.826C66.783,427.284,151.497,512,256,512
	s189.217-84.716,189.217-189.217c0-9.48-0.925-18.72-2.271-27.826H69.053z"/>
<path style="fill:#6D2C93;" d="M256,294.957V512c104.501,0,189.217-84.716,189.217-189.217c0-9.48-0.925-18.72-2.271-27.826H256z"/>
<g>
	<circle style="fill:#B87FD9;" cx="283.459" cy="395.13" r="50.087"/>
	<circle style="fill:#B87FD9;" cx="183.285" cy="361.739" r="16.696"/>
</g>
<circle style="fill:#6D2C93;" cx="250.067" cy="228.174" r="16.696"/>
<g>
</g>
<g>
</g>
<g>
</g>
<g>
</g>
<g>
</g>
<g>
</g>
<g>
</g>
<g>
</g>
<g>
</g>
<g>
</g>
<g>
</g>
<g>
</g>
<g>
</g>
<g>
</g>
<g>
</g>
</svg>
