<?xml version="1.0" encoding="iso-8859-1"?>
<!-- Generator: Adobe Illustrator 19.0.0, SVG Export Plug-In . SVG Version: 6.00 Build 0)  -->
<svg version="1.1" id="Layer_1" xmlns="http://www.w3.org/2000/svg" xmlns:xlink="http://www.w3.org/1999/xlink" x="0px" y="0px"
	 viewBox="0 0 511.999 511.999" style="enable-background:new 0 0 511.999 511.999;" xml:space="preserve">
<path style="fill:#FF6464;" d="M270.358,7.083c61.426,79.451,155.086,173.126,234.523,234.56c9.441,7.302,9.441,21.411,0,28.712
	c-79.436,61.434-173.098,155.111-234.523,234.56c-7.302,9.444-21.415,9.444-28.716,0C180.216,425.466,86.555,331.791,7.118,270.356
	c-9.441-7.302-9.441-21.411,0-28.712C86.555,180.21,180.216,86.534,241.641,7.084C248.943-2.361,263.056-2.361,270.358,7.083z"/>
<path style="fill:#D2555A;" d="M253.791,504.917c-28.33-79.45-71.527-173.126-108.164-234.56c-4.355-7.302-4.355-21.411,0-28.712
	c36.637-61.435,79.834-155.111,108.164-234.56c1.408-3.948,4.279-5.682,6.744-6.451c-6.705-1.734-14.199,0.38-18.894,6.451
	C180.216,86.533,86.555,180.209,7.118,241.643c-9.441,7.302-9.441,21.41,0,28.712c79.436,61.434,173.098,155.111,234.523,234.56
	c4.693,6.07,12.188,8.185,18.893,6.451C258.069,510.598,255.198,508.864,253.791,504.917z"/>
<g>
</g>
<g>
</g>
<g>
</g>
<g>
</g>
<g>
</g>
<g>
</g>
<g>
</g>
<g>
</g>
<g>
</g>
<g>
</g>
<g>
</g>
<g>
</g>
<g>
</g>
<g>
</g>
<g>
</g>
</svg>
