<?xml version="1.0" encoding="iso-8859-1"?>
<!-- Generator: Adobe Illustrator 19.0.0, SVG Export Plug-In . SVG Version: 6.00 Build 0)  -->
<svg version="1.1" id="Layer_1" xmlns="http://www.w3.org/2000/svg" xmlns:xlink="http://www.w3.org/1999/xlink" x="0px" y="0px"
	 viewBox="0 0 512 512" style="enable-background:new 0 0 512 512;" xml:space="preserve">
<path style="fill:#FFD485;" d="M252.695,0.042C112.836,1.814,0,115.72,0,256c0,141.384,114.616,256,256,256
	c1.105,0,2.203-0.028,3.305-0.042c69.166-1.753,158.087-58.37,158.087-127.958L252.695,0.042z"/>
<path style="fill:#C0141C;" d="M512,256C512,114.615,397.384,0,256,0c-1.105,0-2.203,0.028-3.305,0.042
	C183.53,1.795,128,58.413,128,128c0,70.693,57.307,128,128,128s128,57.307,128,128c0,69.587-55.53,126.205-124.695,127.958
	C399.164,510.186,512,396.28,512,256z"/>
<circle style="fill:#FFD485;" cx="256" cy="128" r="33.391"/>
<circle style="fill:#C0141C;" cx="256" cy="384" r="33.391"/>
<g>
</g>
<g>
</g>
<g>
</g>
<g>
</g>
<g>
</g>
<g>
</g>
<g>
</g>
<g>
</g>
<g>
</g>
<g>
</g>
<g>
</g>
<g>
</g>
<g>
</g>
<g>
</g>
<g>
</g>
</svg>
